<svg xmlns="http://www.w3.org/2000/svg" viewBox="0 0 848.15 154.21"><defs><style>.cls-1{fill:#fff;}</style></defs><g id="Capa_2" data-name="Capa 2"><g id="Capa_1-2" data-name="Capa 1"><path class="cls-1" d="M482.52.11c-7.77-.2-13.41,2.56-20.07,11.59L384,118.23,353.8,14c-3.13-10.55-10-14-16.3-14-9.56.05-14.39,4.05-19.42,13L249,152H287.6l46.8-95.8L363.63,152h32.3l70.64-95.26L466.22,152H499.4l-.25-133.52c0-12.93-8.34-18.14-16.63-18.36"/><polygon class="cls-1" points="202.41 24.78 171.23 151.99 206.55 151.99 237.28 24.78 202.41 24.78"/><path class="cls-1" d="M76.7,82.6h-25l9.31-38.36h26.4c14,0,21.27,6.55,19.91,18.6C105.93,75.27,93.7,82.6,76.7,82.6M142.16,61c1.91-16.87-7.9-36.25-43.13-36.25H30.77L0,152H35l11.54-47.76h18l31,47.76h38.15L98.87,101.34c30.87-7.67,41.37-23.43,43.29-40.31"/><path class="cls-1" d="M590.39,104.68l30.86-46.46L633,104.68ZM644.84,152h33.53L646.44,34.8c-4.2-13.36-12.49-16.88-21.1-16.19-5.4.45-11,2.75-16.82,10.46L524.6,152h34.33l17-25.94,62.38-.06Z"/><path class="cls-1" d="M784.92,128.46c-28.39-.41-44.58-16.45-42.25-36.8,3.14-27.53,28.23-44.28,63.36-44,10.35.08,23.67.79,35.91,3.93l6.21-25.5c-9.9-2.37-26.87-4.19-37.95-4.19-60.26,0-98.48,27.84-103.2,69.22-4.16,36.69,21.78,63.11,77.6,63.11,11.23,0,21-1,34.78-3.17l6.75-27.83c-13.39,3.6-24.12,5.51-41.21,5.25"/></g></g></svg>