<svg xmlns="http://www.w3.org/2000/svg" viewBox="0 0 323.08 58.74"><defs><style>.cls-1{fill:#fff;}</style></defs><g id="Capa_2" data-name="Capa 2"><g id="Capa_1-2" data-name="Capa 1"><path class="cls-1" d="M183.81,0c-3-.08-5.12,1-7.65,4.42L146.27,45l-11.5-39.7C133.58,1.32,131,0,128.56,0c-3.64,0-5.48,1.54-7.4,5L94.83,57.9h14.73l17.82-36.5,11.13,36.5h12.31l26.91-36.29-.14,36.29h12.64L190.14,7c0-4.92-3.18-6.9-6.33-7"/><polygon class="cls-1" points="77.1 9.44 65.22 57.9 78.68 57.9 90.39 9.44 77.1 9.44"/><path class="cls-1" d="M29.22,31.47H19.71l3.55-14.62H33.31c5.34,0,8.1,2.5,7.59,7.09s-5.21,7.53-11.68,7.53m24.93-8.22c.73-6.43-3-13.81-16.43-13.81h-26L0,57.9H13.33l4.39-18.2h6.85L36.38,57.9H50.91L37.66,38.6c11.76-2.92,15.76-8.92,16.49-15.35"/><path class="cls-1" d="M224.89,39.88l11.76-17.7,4.47,17.7Zm20.75,18h12.77L246.24,13.26c-1.6-5.09-4.75-6.43-8-6.17-2.06.17-4.2,1.05-6.41,4l-32,46.83h13.08L219.4,48l23.76,0Z"/><path class="cls-1" d="M299,48.93c-10.81-.15-17-6.26-16.09-14,1.2-10.49,10.75-16.87,24.14-16.77a58.84,58.84,0,0,1,13.68,1.49l2.36-9.71a74.89,74.89,0,0,0-14.46-1.59c-22.95,0-37.51,10.6-39.3,26.36-1.59,14,8.29,24,29.55,24a77.61,77.61,0,0,0,13.25-1.21l2.57-10.6a51.12,51.12,0,0,1-15.7,2"/></g></g></svg>