<svg xmlns="http://www.w3.org/2000/svg" viewBox="0 0 161.43 161.41"><defs><style>.cls-1{fill:#42c1ad;}</style></defs><title>IconoSeguroSalud</title><g id="Capa_2" data-name="Capa 2"><g id="Capa_1-2" data-name="Capa 1"><path class="cls-1" d="M79.9,161.41q-7,0-14,0A13.58,13.58,0,0,1,52.52,150.3a17.2,17.2,0,0,1-.26-3.08q0-11.31,0-22.63V109.18H26q-6,0-12,0a13.37,13.37,0,0,1-12-6.57,12,12,0,0,1-2-6.76l0-5.1C0,82.3,0,73.58.08,65a12.29,12.29,0,0,1,4-8.84,13.3,13.3,0,0,1,9.93-4l12.22,0h26V35.09q0-10.64,0-21.28A13.71,13.71,0,0,1,63.75.19,16.24,16.24,0,0,1,66.2,0q8.16,0,16.31,0H95.27A13.67,13.67,0,0,1,109,11.76a17,17,0,0,1,.18,2.55q0,11.35,0,22.71V52.21h26.24q6,0,11.92,0a13.38,13.38,0,0,1,12,6.59,13.13,13.13,0,0,1,2,7.32c0,10.78,0,20.34,0,29.24a13.68,13.68,0,0,1-11.11,13.51,15.19,15.19,0,0,1-3,.27q-7.63,0-15.26,0H109.21v17.14q0,10.52,0,21a13.37,13.37,0,0,1-4.84,10.73,13,13,0,0,1-8.82,3.31Z" transform="translate(0)"/></g></g></svg>