<svg xmlns="http://www.w3.org/2000/svg" viewBox="0 0 68.52 162.86"><defs><style>.cls-1{fill:#e6281f;}</style></defs><title>IconoSeguroVida</title><g id="Capa_2" data-name="Capa 2"><g id="Capa_1-2" data-name="Capa 1"><path class="cls-1" d="M55.32,115.15v.61c0,11,0,22,0,33.06a13.49,13.49,0,0,1-7.65,12.59,12.45,12.45,0,0,1-5.95,1.44H26.76a13.77,13.77,0,0,1-13.35-11.47,20.61,20.61,0,0,1-.2-2.72q0-16.46,0-32.91v-.63c-.7-.08-1.37-.12-2-.22a13.09,13.09,0,0,1-11-11.32,19.35,19.35,0,0,1-.12-2C0,90.16,0,78.74,0,67.32a14.07,14.07,0,0,1,5.5-11.07A14.54,14.54,0,0,1,15,52.92q19.22,0,38.43,0A14.89,14.89,0,0,1,68.12,64.71,15.78,15.78,0,0,1,68.49,68c0,11.21,0,22.42,0,33.63a13.43,13.43,0,0,1-10.43,13.15C57.21,115,56.29,115,55.32,115.15Z"/><path class="cls-1" d="M34.27,46.25a23.13,23.13,0,1,1,23.1-23.16A23.12,23.12,0,0,1,34.27,46.25Z"/></g></g></svg>