<svg xmlns="http://www.w3.org/2000/svg" viewBox="0 0 221.46 161.38"><defs><style>.cls-1{fill:#ffc700;}</style></defs><title>IconoSeguroAuto</title><g id="Capa_2" data-name="Capa 2"><g id="Capa_1-2" data-name="Capa 1"><path class="cls-1" d="M55.43,133.55v.87c0,6,0,11.94,0,17.91a9,9,0,0,1-1.38,5.14,8.36,8.36,0,0,1-7.42,3.88q-14.37,0-28.73,0c-5.11,0-8.66-3.67-8.69-8.87q-.08-17.34-.14-34.69Q9,101,8.94,84.17a3.45,3.45,0,0,1,.25-1.26c2.29-5.69,4.61-11.38,6.92-17.07.08-.19.14-.38.23-.63-.94-.07-1.84-.11-2.74-.2a20.87,20.87,0,0,1-8.08-2.22A9.71,9.71,0,0,1,.09,55.16a9.83,9.83,0,0,1,1.59-7,2.36,2.36,0,0,1,2.14-1.09c6.72,0,13.43,0,20.15,0A1,1,0,0,0,25,46.45c4.46-10.08,8.92-20.17,13.47-30.21a20.5,20.5,0,0,1,2.65-3.88,40.56,40.56,0,0,1,7.61-7.82A21.65,21.65,0,0,1,61.05.11C62.79,0,64.53,0,66.27,0h91.15a29.89,29.89,0,0,1,8.42,1,23,23,0,0,1,9.27,5.48,56.74,56.74,0,0,1,7.6,8.85,14.11,14.11,0,0,1,1.22,2.57q6.24,14.31,12.46,28.62a.83.83,0,0,0,.92.58c6.76,0,13.51,0,20.27,0a2.39,2.39,0,0,1,2.18,1.16,9.92,9.92,0,0,1-2.27,13.53,17.14,17.14,0,0,1-7.88,3c-1.49.21-3,.33-4.56.49.06.17.12.38.21.58q3.62,8.58,7.23,17.16a2.92,2.92,0,0,1,.22,1.13q-.12,34.23-.27,68.45a8.41,8.41,0,0,1-6.8,8.6,9.68,9.68,0,0,1-1.85.19q-14.58,0-29.16,0a8.57,8.57,0,0,1-8.5-6.9,10.4,10.4,0,0,1-.19-2.16c0-6,0-12,0-18v-.72ZM185.14,57.12l-1.32-2.85c-4.14-9.07-8.25-18.16-12.44-27.2a27.73,27.73,0,0,0-5.7-8.09,12.32,12.32,0,0,0-9-3.74q-46.32,0-92.64,0a10.56,10.56,0,0,0-3,.49c-3.19,1-5.47,3.17-7.44,5.74a48.11,48.11,0,0,0-5.27,9.62c-3.89,8.48-7.73,17-11.59,25.47-.07.16-.12.33-.19.52ZM40.51,85A14.07,14.07,0,1,0,54.56,99.15,14,14,0,0,0,40.51,85ZM181,85c-7.3-.26-13.91,6-14.21,13.36A14.06,14.06,0,1,0,181,85Z"/></g></g></svg>