<svg xmlns="http://www.w3.org/2000/svg" viewBox="0 0 32.18 39.96"><defs><style>.cls-1{fill:#42c1ad;}</style></defs><title>IconoCandado</title><g id="Capa_2" data-name="Capa 2"><g id="Capa_1-2" data-name="Capa 1"><path class="cls-1" d="M5.22,14.75V10.89A10.57,10.57,0,0,1,7,5,10.86,10.86,0,0,1,11.47,1,10.5,10.5,0,0,1,14.8.08,10.53,10.53,0,0,1,22.28,2a10.72,10.72,0,0,1,4.37,6.51A10.55,10.55,0,0,1,26.92,11c0,1.21,0,2.41,0,3.62v.12c.35.08.7.12,1,.22a5.58,5.58,0,0,1,4.1,4.42,5.49,5.49,0,0,1,.12,1.22V34.11a5.66,5.66,0,0,1-1.24,3.65,5.54,5.54,0,0,1-3.39,2.07,6.33,6.33,0,0,1-1.23.12H5.85A5.7,5.7,0,0,1,2,38.55,5.6,5.6,0,0,1,.07,35a7.89,7.89,0,0,1-.06-1c0-4.57,0-9.14,0-13.72A5.46,5.46,0,0,1,2,16.1a5.53,5.53,0,0,1,3.06-1.32Zm16.19,0V10.92a5.23,5.23,0,0,0-.57-2.43,5.33,5.33,0,0,0-5.57-2.88,5.2,5.2,0,0,0-3.33,1.9,5.06,5.06,0,0,0-1.2,3.21c0,1.3,0,2.6,0,3.9,0,0,0,.06,0,.09ZM14.76,27.38a.43.43,0,0,1,0,.12c-.41,1.6-.81,3.2-1.22,4.8a.64.64,0,0,0,.65.84h3.76a.65.65,0,0,0,.65-.85c-.42-1.59-.83-3.17-1.25-4.75,0-.12,0-.19.1-.24a1.62,1.62,0,0,0,.18-.1,3,3,0,1,0-3.92-.62A3.23,3.23,0,0,0,14.76,27.38Z"/></g></g></svg>