<svg xmlns="http://www.w3.org/2000/svg" viewBox="0 0 46.14 40.07"><defs><style>.cls-1{fill:#42c1ad;}</style></defs><title>IconoCheck</title><g id="Capa_2" data-name="Capa 2"><g id="Capa_1-2" data-name="Capa 1"><path class="cls-1" d="M14.19,25.25c.61-1,1.2-2.07,1.83-3.08A57.53,57.53,0,0,1,25,10.85a42.31,42.31,0,0,1,11.37-8A32.63,32.63,0,0,1,42.89.49a21.06,21.06,0,0,1,3-.49h.2L46,.12a59.88,59.88,0,0,0-7.91,7.36,96.39,96.39,0,0,0-8.83,11.4c-2.35,3.51-4.52,7.13-6.54,10.85-1.19,2.19-2.33,4.41-3.39,6.67a8.46,8.46,0,0,1-.71,1.37,5.18,5.18,0,0,1-4,2.29A5.23,5.23,0,0,1,9.71,37.7c-3.14-4.48-6.26-9-9.4-13.46A1.57,1.57,0,0,1,.1,22.75,4.65,4.65,0,0,1,1,21.31a12.68,12.68,0,0,1,3.76-3,7.84,7.84,0,0,1,2.37-.9,4.49,4.49,0,0,1,1.1,0,1.28,1.28,0,0,1,.92.6l4.95,7.1Z"/></g></g></svg>