<svg xmlns="http://www.w3.org/2000/svg" viewBox="0 0 23.07 20.04"><defs><style>.cls-1{fill:#e1251b;}</style></defs><g id="Capa_2" data-name="Capa 2"><g id="Capa_1-2" data-name="Capa 1"><path class="cls-1" d="M7.1,12.62c.3-.51.6-1,.91-1.54a28.73,28.73,0,0,1,4.47-5.66,21.23,21.23,0,0,1,5.69-4A15.79,15.79,0,0,1,21.45.25,9.64,9.64,0,0,1,23,0h.1L23,.06a30,30,0,0,0-4,3.68,48.69,48.69,0,0,0-4.41,5.7c-1.18,1.75-2.26,3.57-3.27,5.42-.6,1.1-1.17,2.21-1.7,3.34a4.47,4.47,0,0,1-.35.69,2.6,2.6,0,0,1-2,1.14,2.61,2.61,0,0,1-2.46-1.18L.15,12.12a.79.79,0,0,1-.1-.74,2.45,2.45,0,0,1,.44-.73A6.32,6.32,0,0,1,2.37,9.16a3.6,3.6,0,0,1,1.18-.45,2,2,0,0,1,.55,0A.63.63,0,0,1,4.57,9Q5.8,10.77,7,12.54Z"/></g></g></svg>