<svg xmlns="http://www.w3.org/2000/svg" viewBox="0 0 16.09 19.98"><defs><style>.cls-1{fill:#e1251b;}</style></defs><g id="Capa_2" data-name="Capa 2"><g id="Capa_1-2" data-name="Capa 1"><path class="cls-1" d="M2.61,7.38V5.44a5.28,5.28,0,0,1,.87-3,5.46,5.46,0,0,1,2.26-2A5,5,0,0,1,7.4,0a5.24,5.24,0,0,1,3.74,1,5.38,5.38,0,0,1,2.19,3.25,5.83,5.83,0,0,1,.13,1.25V7.37a4,4,0,0,1,.52.11A2.79,2.79,0,0,1,16,9.68a2.53,2.53,0,0,1,.06.61v6.76a2.87,2.87,0,0,1-.62,1.83,2.82,2.82,0,0,1-1.69,1,4.2,4.2,0,0,1-.62.06H2.93A2.89,2.89,0,0,1,1,19.28a2.79,2.79,0,0,1-1-1.76A2.63,2.63,0,0,1,0,17c0-2.28,0-4.57,0-6.85A2.71,2.71,0,0,1,1,8.05a2.79,2.79,0,0,1,1.53-.66Zm8.09,0s0,0,0-.06V5.46a2.74,2.74,0,0,0-.29-1.22A2.67,2.67,0,0,0,7.63,2.81,2.62,2.62,0,0,0,6,3.75a2.58,2.58,0,0,0-.6,1.61c0,.65,0,1.3,0,1.95v.05ZM7.38,13.69s0,0,0,.06c-.2.8-.41,1.6-.61,2.4a.32.32,0,0,0,.33.42H9a.33.33,0,0,0,.33-.43l-.63-2.37c0-.06,0-.1.05-.12l.1-.05a1.53,1.53,0,1,0-1.76-2.49,1.53,1.53,0,0,0,.33,2.58Z"/></g></g></svg>